<svg xmlns="http://www.w3.org/2000/svg" viewBox="0 0 1006.34 894.67"><defs><style>.cls-1{fill:#e9f3fd;}.cls-2{fill:#cff0ff;}.cls-3,.cls-4,.cls-6,.cls-7{fill:none;stroke-width:4px;}.cls-3,.cls-6{stroke:#063573;}.cls-3,.cls-4{stroke-miterlimit:10;}.cls-4,.cls-7{stroke:#63c2e9;}.cls-5{fill:#063573;}.cls-6,.cls-7{stroke-linecap:round;stroke-linejoin:round;}</style></defs><g id="Layer_2" data-name="Layer 2"><g id="Layer_1-2" data-name="Layer 1"><path class="cls-1" d="M597,760.6c-9,4.14-13.15,15.16-10,24,2.8,7.87,10.25,10.72,11,11,7.92,2.88,18.09.21,23-8a19.3,19.3,0,0,0-5-25A18.86,18.86,0,0,0,597,760.6Z"/><path class="cls-1" d="M587,717.6l27,1q-.12-50.86,2-105c2.57-63.71,7.49-124.15,14-181l-51,1"/><path class="cls-2" d="M262,99.6c2.61-2.67,10.41,1.09,12.3,2A36.57,36.57,0,0,1,288.45,114c6.23-5,14.27-4.77,18.21-.77,3.73,3.78,2.5,9.63,2.34,10.33q2.5,8.19,5,16.38a41.1,41.1,0,0,1,10.26,11,40.48,40.48,0,0,1,5.92,16c6.82,2,14-.94,16.85-6.35a12.2,12.2,0,0,0-1.27-12.86,12.53,12.53,0,0,0-.73-14.12c-3.83-4.76-10-4.61-10.73-4.58,7.16-.8,13.34-5.08,15.87-11.08a16.57,16.57,0,0,0,0-12.4c10.63-12.27,9.11-20.66,8.73-22.39-3-13.79-27-24.5-59.33-18.36,7.66-10.5,8.89-23.12,3.27-32.38-1.11-1.84-6.34-10.4-16.9-11.17-9.73-.71-16.7,5.74-17.77,6.76a19.08,19.08,0,0,0-11.49-6.31A21.4,21.4,0,0,0,241.84,25a15.52,15.52,0,0,0-7.46-7c-6.68-2.75-15.5.16-21.38,7.61,1.5-7.78-2-14.43-7-16-4.52-1.43-8.74,1.79-9,2-4.37,3.44-5.78,10.35-3,17,1.58-6.43-.45-12.88-5-16-6.47-4.45-15.61-.48-20,5-5.3,6.6-3.28,14.92-3,16-1.32-.87-8.89-5.66-16-3-8.49,3.17-14,16.11-9,30a68.62,68.62,0,0,0-20,5,62.74,62.74,0,0,0-18,11c-13.22,12.06-23.64,36.09-14.27,54.73A36.31,36.31,0,0,0,102,145.6c-1.44,1-11.76,8.32-13,22a30.65,30.65,0,0,0,7,22c-10.32,8.28-12.52,21.45-7.07,29.34,5,7.23,14.75,7.62,16.07,7.66-4.2,11.15-.34,23.6,9,30a25.35,25.35,0,0,0,28,0,21.71,21.71,0,0,1-3-6,21.46,21.46,0,0,1-.94-8c5.08-5.41,5.44-8.9,4.94-11-1.31-5.54-9.28-5.53-16-15-1.7-2.41-4.15-6-3-9s4.6-2.76,6-6-1.43-5.27-1-9c.68-5.92,9-10.75,16-12s7.82,2,17,2c10,0,21.69-4,23-10,.51-2.33-.5-5.12,1-6,.94-.56,2,.07,5,.2a13.94,13.94,0,0,0,3-.2,23.73,23.73,0,0,0,8.91-3.8c10.37-7.54,8.19-25.47,8.09-26.2a36,36,0,0,0-10-20c14,3.9,21.19,8.55,25.23,12.25,1.93,1.78,6.91,6.77,12.4,5.91,1.94-.3,2.88-1.14,4.05-.74,2,.68,3.37,4.51,1.87,16.72A21.7,21.7,0,0,0,256,142.89a20.09,20.09,0,0,0,1.09-21.22A21.3,21.3,0,0,0,262,110.6C262.6,104.85,260.16,101.48,262,99.6Z"/><path class="cls-2" d="M145,263.6c-2.67,1.64-2.59,11.3,4,16a12.84,12.84,0,0,0,16-1C151.94,264.52,147,262.39,145,263.6Z"/><path class="cls-2" d="M160,274.6c-1.22.82,1.73,12.95,10,15,6.44,1.59,13.38-3.61,13-5-.28-1-4.36.58-10-1C164.46,281.2,161,273.91,160,274.6Z"/><path class="cls-1" d="M227,591.6c-1.9.47-11.19,2.59-23.8,5.78-11.26,2.86-20.6,5.39-27.2,7.22q12.17,28.78,24,60,13.8,36.51,25,71c25.75.3,78.39-3.13,124-39a171.69,171.69,0,0,0,24-23l38-70,57-105a675.32,675.32,0,0,1-76,40C333.43,564.75,281,578.09,227,591.6Z"/><path class="cls-1" d="M138,576.6c-3,1.67,3.15,31.08,26,49a68.61,68.61,0,0,0,24,12l-12-33a93.58,93.58,0,0,1-15-8C145,586.07,139.91,575.53,138,576.6Z"/><path class="cls-1" d="M138,751.6a105.89,105.89,0,0,0,69.28-68.72,107,107,0,0,1-47.2,23.6A105.74,105.74,0,0,1,122,707.6Q130,729.59,138,751.6Z"/><path class="cls-1" d="M772,323.6a41.62,41.62,0,0,0,16,21,40.22,40.22,0,0,0,15,6q6.5-9.51,13-19Z"/><path class="cls-3" d="M315.5,157.1a31.29,31.29,0,0,1-19,4c-12.53-1.46-19.65-10.26-21-12"/><path class="cls-3" d="M264.81,171.23a38,38,0,0,0,1.08,21.09c4.91,14,16.5,20.2,19,21.48l-7.29,15.83"/><path class="cls-3" d="M213.5,199.1q1,9,2,18"/><path class="cls-3" d="M296.5,178.1q1,9.5,2,19"/><path class="cls-3" d="M215.5,172.1a56.13,56.13,0,0,1-38.57,20.17"/><path class="cls-3" d="M159.54,256.26c-2-6.65-.93-12.31,1.87-13.66,3.67-1.77,9.36,4.21,10.56,5.48,5.59,5.88,8.92,15.41,6.14,18-1.73,1.61-5.59.33-7.81-1.2-4.53-3.14-6.33-10.28-4-17.8"/><path class="cls-3" d="M150.6,228.61c-3.51,1.92-9.79,6.11-11.48,13.19-3.32,13.95,14,27.51,18.75,31.28,13.15,10.32,27.5,12.38,35.45,12.78"/><path class="cls-3" d="M334.12,182.34a221.56,221.56,0,0,1,6.13,60c-.82,22.73-1.85,43.7-15.58,63.27-4.21,6-11.5,16.12-24.82,21.74-16.93,7.15-33,2.55-44.21-.67-29.07-8.33-48-27.53-57.23-38.55"/><path class="cls-3" d="M318.93,312.21l10.74,26.93q4.08,10.23,8.15,20.44"/><path class="cls-3" d="M218.5,308.1a158.69,158.69,0,0,1,20,34c7.78,18.12,7.1,26.14,6,31a35.72,35.72,0,0,1-6,13"/><path class="cls-4" d="M201.07,113.74c1.12.94,14,12.05,12.39,28.44-.34,3.54-2,14.43-11.6,20.77-8.46,5.61-17.4,3.9-19.54,3.49-1.82-.35-11.61-2.23-12.2-7-.48-3.92,5.41-9.05,9.35-8,5.27,1.36,8.89,14.14,5.44,21.52-4.37,9.37-21.4,12.78-42.15,7.12"/><path class="cls-4" d="M141.9,185.78c-5.91,0-11.07,2.86-12.8,7.26-3.34,8.5,7.45,19.21,11.39,18.07,2.3-.67,3.65-5.8,1.92-8.3-2.83-4.09-15.08-2.84-17.73,2.76-2.23,4.72,1.79,13.67,11.76,19"/><path class="cls-4" d="M203.85,57.73c2.94-2.23,11.38-8,22.41-6.78,16.1,1.76,28.55,17.33,29.27,31.39.09,1.83.64,12.65-6,16.4-7,3.93-19.08-1.56-20-8.17-.74-5.33,5.68-11.82,11.86-12.27,10.48-.76,23.24,15.6,21.46,30.2-1.07,8.76-7.64,19.07-16.32,19.43-5.32.22-11.84-3.28-12.57-7.91-.93-5.81,7.4-12.76,14-12,9,1,17,16.11,12.92,27.15-2.38,6.47-8.2,9.57-10.42,10.61"/><path class="cls-4" d="M314,121.46c.24-1.82,1.05-9.14-3-12.8-7.48-6.73-26.2,3.63-25.65,9.15.32,3.32,7.77,6.55,10.18,4.55,3.2-2.64-.56-16-9.26-23.22a26.84,26.84,0,0,0-14.91-5.9"/><path class="cls-4" d="M315,66.16c3.5-1.85,12.14-5.76,22.62-3.63,12.48,2.53,28.08,13.71,26.87,28-1,11.47-12.38,21.17-23,21-5.37-.07-12.47-2.69-13.1-6.61-.85-5.32,10.09-13.71,17.48-11.28,8.27,2.72,13.57,19.47,6.23,28.74-4.42,5.57-12.75,7.62-21,5.13"/><path class="cls-4" d="M348,130.52c.56.66,6.64,8,4.12,15.58-1.21,3.61-4.78,8.48-8.45,7.68-3.35-.73-6.16-6.05-4.61-8.93.92-1.71,3.38-2.55,5.42-2.16,5.35,1,10.85,11.2,7.41,18.58-2.1,4.49-7.16,7.19-12.81,7.26"/><path class="cls-4" d="M305.51,58.11c.76-1,10.51-14,5.18-29-.57-1.62-5.93-16-18.45-17.4-11.33-1.3-22.09,8.72-22.85,18.8-.57,7.63,4.55,15.83,7.2,15.43s4.49-10.07,2.2-18.1c-1.85-6.51-7-14.28-15-16.63-15.2-4.48-32.2,13.31-30.07,21.68,1.13,4.47,8.14,8,11.83,6.05,6.93-3.56,6.66-28.39-3.73-33-5.83-2.57-14.61,2.15-20.93,10.5"/><path class="cls-4" d="M132.67,60.28c-11.57-5.19-19.4-3.75-23-2.66-23.94,7.2-39.31,44.95-26.58,69.81,4.84,9.44,12.77,15.09,18.82,18.33-1.88-.59-11.12-3.27-18.1,1.84-9,6.56-8,21.44-3.54,30.48a28.17,28.17,0,0,0,8,9.71c-2.37,1-8.75,4.12-11.32,11-3.8,10.12,3.29,21.53,10.74,26.94a26.57,26.57,0,0,0,12.37,4.76"/><path class="cls-4" d="M97.24,239.12c-.26,1.47-2.21,13.73,5.81,22.44s22.7,10.29,34.45,2.42a18.21,18.21,0,0,0,4.7,19.65c6.28,5.56,14.22,3.88,15.07,3.68.23,1.1,1.68,7.64,7.52,11s14,2.13,19.54-3.49"/><path class="cls-4" d="M214.2,18.08c0-8.57-4.21-15.25-8.47-16-4.91-.87-12.5,5.67-13.08,17-.33,1.2-2.32,8.65-.28,9.8,1.89,1.07,7.45-3.09,7.55-7.31.15-6.6-13-17-24-13-7.84,2.79-11.7,11.74-11.44,18.56.16,4,1.8,9.18,3.71,9.29s5.13-5.43,3.72-9c-2.39-6.1-19.21-10.3-27.92-1.79-5.55,5.43-6.76,15-3.05,23.83"/><path class="cls-5" d="M326.71,331.71a58.12,58.12,0,0,1-30.33,13.17c-30.52,3.44-52.19-20.13-54.65-22.88a108.13,108.13,0,0,0,23.08,8c9.54,2.12,16.73,3.73,25.75,1.57a47,47,0,0,0,15.88-7.41,55.57,55.57,0,0,0,12.22-11.33Q322.68,322.28,326.71,331.71Z"/><path class="cls-3" d="M235.5,393.1c7.25,4.28,25.48,13.63,49,11,3.9-.44,41.64-5.29,57-37a62.94,62.94,0,0,0,6-30"/><path class="cls-3" d="M215.13,401.1a98.73,98.73,0,0,0,51.2,19c7.85.57,41.58,2.08,69.34-22,29.05-25.21,28.91-58.79,28.8-64"/><path class="cls-3" d="M247.5,280.1a16,16,0,0,1,9-8c7.23-2.47,13.32,1.53,14,2"/><path class="cls-3" d="M204.47,405.1c-11.91,4.58-34.26,13.16-62.94,24-38.91,14.7-48.36,18-58.66,27-16.2,14.1-22.38,31.59-29.87,65-11.66,52-5,72.74-18.13,126A360.83,360.83,0,0,1,21,691.1c21.42,4,40.76,7.31,57.6,10,48.41,7.71,60.26,7.85,72.53,6,14.29-2.17,32.05-7.49,51.2-20"/><path class="cls-3" d="M110.82,718.1c12.37,28.15,24.57,58.17,36.27,90q16.38,44.6,28.8,86"/><path class="cls-3" d="M125.53,563.1a117.36,117.36,0,0,0,21.34,22,123.75,123.75,0,0,0,28.8,17"/><path class="cls-3" d="M150.07,528.1c17.13,45.53,31.47,84.84,42.66,116,28.44,79.12,41.88,116.8,53.34,169,3.7,16.86,6.28,30.92,7.93,40.5"/><path class="cls-3" d="M186.33,598.1c19.52-3.79,48.89-9.92,84.27-19,54.28-14,92.28-24.07,137.07-46.5a471.71,471.71,0,0,0,57.33-34"/><path class="cls-3" d="M230.5,733.1a275.09,275.09,0,0,0,122-45"/><path class="cls-3" d="M368.5,332.1c1.41-.32,4.38-1,8.09-1.91,31.11-7.65,41.8-19.11,73.69-27.28,3.38-.87,5.33-1.37,7.72-1.81,16.55-3.1,46-2.16,88,31.5"/><path class="cls-3" d="M706.5,412.1l53-103"/><path class="cls-3" d="M811.5,341.1c-9.91,18.54-16.59,53.08-25.5,78.5-11.93,34-16.5,54-25.5,78.5"/><path class="cls-3" d="M769.5,290.1c1.29-9.1,4.58-21.35,14-31,9-9.23,18.49-10.88,30-16,11.7-5.21,27.25-14.79,43-34a27.74,27.74,0,0,1,2,12,29.09,29.09,0,0,1-8,18"/><path class="cls-3" d="M818.5,256.1a270.16,270.16,0,0,1,34-9c14.7-2.88,18.19-2.7,31-6,12.55-3.24,11.46-4.16,29-9,13.79-3.82,22.55-5.48,33-4a57.33,57.33,0,0,1,9,2"/><path class="cls-3" d="M908.5,244.1s26.61-7.36,49-13a19.47,19.47,0,0,1,10,0c3.47,1,8.25,3.45,8,6,0,.53-.39,1.76-3,3"/><path class="cls-3" d="M886.5,251.1a65,65,0,0,1-9,38"/><path class="cls-3" d="M799.5,329.1c16.32,3.69,28.8,2.58,37,1,17.41-3.38,23.25-10.42,52-23,15.25-6.68,16.41-5.61,34-13,15.45-6.5,27.78-12.68,36-17,5.17-3.67,13.29-10,12-13s-11.2-1.61-20,0c-15.19,2.76-37.63,8-67,19"/><path class="cls-3" d="M897.5,259.1q22.72-4.73,46-10,15.16-3.45,30-7c5-.3,9.12,1.34,10,4,.94,2.83-2.13,6-5,9a32.17,32.17,0,0,1-10,7"/><path class="cls-3" d="M485,404.6q4,20,8,40"/><path class="cls-4" d="M588,720.6s-10-45-13-148,4-139,4-139,17-5,51-4c0,0-20,220-16,291H601"/><path class="cls-4" d="M606.36,756c-6.56-.56-13,7.53-15.41,14.13-2.48,6.78-3.28,18.87,5.14,24.4,7.47,4.91,18.37,2.12,23.11-3.85C627.89,779.74,616.8,756.91,606.36,756Z"/><path class="cls-6" d="M244,880.3,597,266.6,968.28,877.73Z"/><path class="cls-7" d="M2,799.6c.48,2.17,3.38,14.23,15,21,1.51.87,16.33,9.18,29,1,12-7.74,15.8-26.17,10-32-3.06-3.08-9.41-3.28-12.5-.5-4.24,3.8-1.93,12.85,1,18,6.68,11.7,22.54,13.59,26,14,29.53,3.5,53.28-27.37,56-31"/><path class="cls-7" d="M523,109.6c3.35,2.5,19.89,14.3,40,10,22.06-4.73,38.55-26.75,35-33-2.68-4.72-18.57-3.7-24,4-6.78,9.61,2.74,29.72,17,38,12.78,7.41,29.91,5.65,44-4"/><path class="cls-7" d="M1004.34,577.37c-5.37.46-33.79,3.26-47.48,18.29-9.3,10.19-10.53,24.63-4.29,26.35,5.79,1.6,21.1-6.91,23.23-16.63,2.22-10.14-10.6-18.46-21.28-21.59-17.53-5.15-42-.08-60,13.13"/></g></g></svg>